<svg xmlns="http://www.w3.org/2000/svg" xmlns:xlink="http://www.w3.org/1999/xlink" width="496.135" height="744.171" xmlns:v="https://vecta.io/nano"><style><![CDATA[.B{fill:#efef00}.C{fill-rule:evenodd}.D{fill:#ff0}.E{fill:#fff}.F{fill:#3b3bff}]]></style><defs><linearGradient id="A" x1="278.562" x2="3256.183" y1="0" y2="0" gradientUnits="userSpaceOnUse"><stop offset="0"/><stop offset="1" stop-color="#fff"/></linearGradient><path id="B" d="M1528.25 376.913h171.54V3201.07h-171.54z"/><path id="C" d="M1548.33 404.601h131.38V3173.39h-131.38z"/><path id="D" d="M1482.65 357.957h56.3V3210.65h-56.3z"/><path id="E" d="M1502.82 383.294h15.96V3185.31h-15.96z"/><path id="F" d="M-850.894-7147.04H740.007v1171.08H-850.894z"/><path id="G" d="M5478.78-3340.72h859.09v632.38h-859.09z"/><path id="H" d="M313.342 220.626h-2.266v30.279h2.266zm6.252 2.627h-6.307v25.737h6.307zm-20.735-2.271h-2.266v30.279h2.266zm.701 8.114c4.114-.003 7.452 3.165 7.452 7.072.007 3.907-3.327 7.08-7.441 7.083a9.52 9.52 0 0 1-.093 0m-.329-14.941c4.571-.003 8.281 3.517 8.281 7.858.007 4.341-3.696 7.867-8.267 7.87-.036 0-.067 0-.103 0m11.394-20.784h-11.33v25.737h11.33zm11.301-2.627h-2.143v30.279h2.143zm3.023-.003h-3.044v2.333h3.044zm0 27.961h-3.044v2.333h3.044zm-.061-23.311h-3.044v2.333h3.044zm.062 18.539h-3.044v2.333h3.044zm2.869-14.011h-3.044v2.333h3.044zm.001 9.3h-3.044v2.333h3.044zm.061-4.528h-3.044v2.333h3.044zm-3.128-4.779h-2.911v11.625h2.911z"/><path id="I" d="M-348.957 477.595h23.308v30.484h-23.308z"/><path id="J" d="M-244.426 476.984h23.309v30.484h-23.309z"/></defs><path d="M279.188-6499.49H3255.57v4960.63H279.188z" fill="#090" stroke="url(#A)" stroke-width="1.25" transform="matrix(0 .10009 -.09987 0 -153.0318 -27.881371)"/><g class="C"><path d="M495.418 297.312v446.859H0V297.312z" fill="red"/><g transform="matrix(-.10777 -.00535 .00435 .044 471.3384 272.87878)"><use xlink:href="#B"/><use xlink:href="#C" class="B"/></g><g transform="matrix(-.10777 -.00535 .00435 .044 470.32707 272.82862)"><use xlink:href="#D"/><use xlink:href="#E" class="B"/></g><g transform="matrix(-.10777 -.00535 .00435 .044 450.10055 271.82548)"><use xlink:href="#D"/><use xlink:href="#E" class="B"/></g><g transform="matrix(-.10777 -.00535 .00435 .044 412.29817 291.66299)"><use xlink:href="#B"/><use xlink:href="#C" class="B"/></g><g transform="matrix(-.10777 -.00535 .00435 .044 411.28685 291.61283)"><use xlink:href="#D"/><use xlink:href="#E" class="B"/></g><g transform="matrix(-.10777 -.00535 .00435 .044 391.06033 290.60969)"><use xlink:href="#D"/><use xlink:href="#E" class="B"/></g><g transform="matrix(-.10777 -.00535 .00435 .044 345.76076 284.14929)"><use xlink:href="#B"/><use xlink:href="#C" class="B"/></g><g transform="matrix(-.10777 -.00535 .00435 .044 344.74944 284.09913)"><use xlink:href="#D"/><use xlink:href="#E" class="B"/></g><g transform="matrix(-.10777 -.00535 .00435 .044 324.52291 283.09599)"><use xlink:href="#D"/><use xlink:href="#E" class="B"/></g><g transform="matrix(-.10777 .00535 .00435 -.044 350.44649 315.92172)"><use xlink:href="#B"/><use xlink:href="#C" class="B"/></g><g transform="matrix(-.10777 .00535 .00435 -.044 349.43517 315.97188)"><use xlink:href="#D"/><use xlink:href="#E" class="B"/></g><g transform="matrix(-.10777 .00535 .00435 -.044 329.20864 316.97502)"><use xlink:href="#D"/><use xlink:href="#E" class="B"/></g><g transform="matrix(-.09718 -.03188 .00499 -.04692 387.50386 365.24138)"><use xlink:href="#B"/><use xlink:href="#C" class="B"/></g><g transform="matrix(-.09718 -.03188 .00499 -.04692 386.5919 364.94223)"><use xlink:href="#D"/><use xlink:href="#E" class="B"/></g><g transform="matrix(-.09718 -.03188 .00499 -.04692 368.35277 358.95918)"><use xlink:href="#D"/><use xlink:href="#E" class="B"/></g><g transform="matrix(-.08314 -.07856 .02355 -.03451 361.705 415.62088)"><use xlink:href="#B"/><use xlink:href="#C" class="B"/></g><g transform="matrix(-.08314 -.07856 .02355 -.03451 360.92485 414.88364)"><use xlink:href="#D"/><use xlink:href="#E" class="B"/></g><g transform="matrix(-.08314 -.07856 .02355 -.03451 345.32185 400.13891)"><use xlink:href="#D"/><use xlink:href="#E" class="B"/></g><g transform="matrix(0 .10009 -.09987 0 344.18606 478.95526)"><path d="M-725.879 1010.501c.472 617.583-500.337 1118.811-1117.917 1118.811-617.58.981-1119.23-499.445-1119.7-1117.028-1.49-617.599 498.53-1119.609 1116.14-1120.589 617.58-1.96 1119.985 497.67 1121.451 1115.242l.026 3.564zm262.44-.001c.582 762.449-617.702 1381.249-1380.147 1381.249-762.44 1.211-1381.76-616.599-1382.34-1379.048-1.85-762.466 615.47-1382.236 1377.94-1383.446 762.448-2.42 1382.705 614.41 1384.515 1376.846l.032 4.399z" class="B"/><path d="M-491.064 1010.495c.57 747.201-605.348 1353.625-1352.543 1353.625-747.201 1.186-1354.125-604.268-1354.703-1351.469-1.803-747.211 603.17-1354.585 1350.391-1355.771 747.198-2.372 1355.05 602.122 1356.824 1349.303l.031 4.312zm-27.072 0c.559 732.256-593.241 1326.557-1325.491 1326.557-732.256 1.156-1327.047-592.185-1327.606-1324.441-1.774-732.266 591.097-1327.498 1323.382-1328.655C-1115.6-318.376-519.906 274.024-518.167 1006.27l.031 4.224zm-152.27.001c.495 648.204-525.146 1174.283-1173.345 1174.283-648.204 1.029-1174.717-524.209-1175.219-1172.413-1.564-648.213 523.256-1175.117 1171.478-1176.145 648.202-2.057 1175.52 522.347 1177.058 1170.534l.027 3.741zm-23.485 0c.485 635.24-514.643 1150.802-1149.877 1150.802-635.24 1.003-1151.227-513.726-1151.712-1148.966-1.539-635.248 512.783-1151.618 1148.048-1152.621 635.235-2.023 1152.006 511.89 1153.514 1147.121l.027 3.664z"/></g><g transform="matrix(0 .10009 -.09823 0 418.56983 135.20431)"><use xlink:href="#B"/><use xlink:href="#C" class="B"/></g><g transform="matrix(0 .10009 -.09823 0 418.56983 136.14352)"><use xlink:href="#D"/><use xlink:href="#E" class="B"/></g><g transform="matrix(0 .10009 -.09823 0 418.56983 154.92775)"><use xlink:href="#D"/><use xlink:href="#E" class="B"/></g><g transform="matrix(-.10133 .03717 -.00888 -.04332 377.71551 249.23269)"><use xlink:href="#B"/><use xlink:href="#C" class="B"/></g><g transform="matrix(-.10133 .03717 -.00888 -.04332 376.76465 249.58151)"><use xlink:href="#D"/><use xlink:href="#E" class="B"/></g><g transform="matrix(-.10133 .03717 -.00888 -.04332 357.7474 256.55807)"><use xlink:href="#D"/><use xlink:href="#E" class="B"/></g><g transform="matrix(-.10339 .00482 -.00492 -.04542 431.14564 292.98425)"><use xlink:href="#B"/><use xlink:href="#C" class="B"/></g><g transform="matrix(-.10339 .00482 -.00492 -.04542 430.17543 293.0295)"><use xlink:href="#D"/><use xlink:href="#E" class="B"/></g><g transform="matrix(-.10339 .00482 -.00492 -.04542 410.77131 293.9345)"><use xlink:href="#D"/><use xlink:href="#E" class="B"/></g><g transform="matrix(-.09609 -.06197 .01685 -.03825 415.20187 395.5084)"><use xlink:href="#B"/><use xlink:href="#C" class="B"/></g><g transform="matrix(-.09609 -.06197 .01685 -.03825 414.30014 394.9269)"><use xlink:href="#D"/><use xlink:href="#E" class="B"/></g><g transform="matrix(-.09609 -.06197 .01685 -.03825 396.26556 383.29703)"><use xlink:href="#D"/><use xlink:href="#E" class="B"/></g><g transform="matrix(-.10333 -.00134 .00221 -.04564 426.75367 453.61228)"><use xlink:href="#B"/><use xlink:href="#C" class="B"/></g><g transform="matrix(-.10333 -.00134 .00221 -.04564 425.78403 453.5997)"><use xlink:href="#D"/><use xlink:href="#E" class="B"/></g><g transform="matrix(-.10333 -.00134 .00221 -.04564 406.39127 453.34797)"><use xlink:href="#D"/><use xlink:href="#E" class="B"/></g><g transform="matrix(-.09253 .02944 .00119 -.03769 461.76314 380.33646)"><use xlink:href="#B"/><use xlink:href="#C" class="B"/></g><g transform="matrix(-.09253 .02944 .00119 -.03769 460.89482 380.61274)"><use xlink:href="#D"/><use xlink:href="#E" class="B"/></g><g transform="matrix(-.09253 .02944 .00119 -.03769 443.52837 386.1385)"><use xlink:href="#D"/><use xlink:href="#E" class="B"/></g><g transform="matrix(-.09603 -.04468 .01533 -.04201 336.27509 509.57388)"><use xlink:href="#B"/><use xlink:href="#C" class="B"/></g><g transform="matrix(-.09603 -.04468 .01533 -.04201 335.37396 509.15458)"><use xlink:href="#D"/><use xlink:href="#E" class="B"/></g><g transform="matrix(-.09603 -.04468 .01533 -.04201 317.35127 500.76842)"><use xlink:href="#D"/><use xlink:href="#E" class="B"/></g></g><g transform="rotate(90 248.062 248.061)" class="C"><g fill="#f6f6fb"><g transform="matrix(.10009 0 0 .09987 299.42766 875.52111)"><use xlink:href="#F"/><ellipse cx="2861.412" cy="4267.308" rx="740.211" ry="696.019" transform="matrix(1.07463 0 0 1.06349 -3130.393 -10547.35)"/></g><g transform="matrix(.10009 0 0 .09987 -297.47415 529.62066)"><use xlink:href="#G"/><ellipse cx="2861.412" cy="4267.308" rx="740.211" ry="696.019" transform="matrix(.5803 0 0 .57429 4247.852 -5088.506)"/></g></g><g fill="red"><g transform="matrix(.09508 0 0 .09487 299.15021 844.52216)"><use xlink:href="#F"/><ellipse cx="2861.412" cy="4267.308" rx="740.211" ry="696.019" transform="matrix(1.07463 0 0 1.06349 -3130.393 -10547.35)"/></g><g transform="matrix(.09508 0 0 .09487 -267.90651 515.91673)"><use xlink:href="#G"/><ellipse cx="2861.412" cy="4267.308" rx="740.211" ry="696.019" transform="matrix(.5803 0 0 .57429 4247.852 -5088.506)"/></g></g><g fill="#400"><g transform="matrix(.05675 0 0 .05663 297.02475 607.07064)"><use xlink:href="#F"/><ellipse cx="2861.412" cy="4267.308" rx="740.211" ry="696.019" transform="matrix(1.07463 0 0 1.06349 -3130.393 -10547.35)"/></g><g transform="matrix(.05675 0 0 .05663 -41.41858 410.94509)"><use xlink:href="#G"/><ellipse cx="2861.412" cy="4267.308" rx="740.211" ry="696.019" transform="matrix(.5803 0 0 .57429 4247.852 -5088.506)"/></g></g><g class="E"><g transform="matrix(.05122 0 0 .0511 296.71808 572.79682)"><use xlink:href="#F"/><ellipse cx="2861.412" cy="4267.308" rx="740.211" ry="696.019" transform="matrix(1.07463 0 0 1.06349 -3130.393 -10547.35)"/></g><g transform="matrix(.05122 0 0 .0511 -8.72673 395.79368)"><use xlink:href="#G"/><ellipse cx="2861.412" cy="4267.308" rx="740.211" ry="696.019" transform="matrix(.5803 0 0 .57429 4247.852 -5088.506)"/></g></g><g class="F"><g transform="matrix(.01501 0 0 .01498 295.32856 378.58897)"><use xlink:href="#F"/><ellipse cx="2861.412" cy="4267.308" rx="740.211" ry="696.019" transform="matrix(1.07463 0 0 1.06349 -3130.393 -10547.35)"/></g><g transform="matrix(.01501 0 0 .01498 205.79329 326.70391)"><use xlink:href="#G"/><ellipse cx="2861.412" cy="4267.308" rx="740.211" ry="696.019" transform="matrix(.5803 0 0 .57429 4247.852 -5088.506)"/></g><g transform="matrix(.01426 0 0 .01423 295.28695 373.93913)"><use xlink:href="#F"/><ellipse cx="2861.412" cy="4267.308" rx="740.211" ry="696.019" transform="matrix(1.07463 0 0 1.06349 -3130.393 -10547.35)"/></g><g transform="matrix(.01426 0 0 .01423 210.22844 324.64832)"><use xlink:href="#G"/><ellipse cx="2861.412" cy="4267.308" rx="740.211" ry="696.019" transform="matrix(.5803 0 0 .57429 4247.852 -5088.506)"/></g><g transform="matrix(.00851 0 0 .00849 294.96813 338.3214)"><use xlink:href="#F"/><ellipse cx="2861.412" cy="4267.308" rx="740.211" ry="696.019" transform="matrix(1.07463 0 0 1.06349 -3130.393 -10547.35)"/></g><g transform="matrix(.00851 0 0 .00849 244.20163 308.90257)"><use xlink:href="#G"/><ellipse cx="2861.412" cy="4267.308" rx="740.211" ry="696.019" transform="matrix(.5803 0 0 .57429 4247.852 -5088.506)"/></g><g transform="matrix(.00768 0 0 .00767 294.92213 333.18033)"><use xlink:href="#F"/><ellipse cx="2861.412" cy="4267.308" rx="740.211" ry="696.019" transform="matrix(1.07463 0 0 1.06349 -3130.393 -10547.35)"/></g><g transform="matrix(.00768 0 0 .00767 249.10541 306.62986)"><use xlink:href="#G"/><ellipse cx="2861.412" cy="4267.308" rx="740.211" ry="696.019" transform="matrix(.5803 0 0 .57429 4247.852 -5088.506)"/></g></g></g><g transform="matrix(0 .10009 -.09987 0 33.627805 -2.85837)" class="C E"><circle r="35.688" cx="2899.235" cy="-1862.472"/><circle r="35.688" cx="3033.006" cy="-1862.472"/><circle r="35.688" cx="2964.939" cy="-1787.314"/><circle r="35.688" cx="2904.435" cy="-1714.521"/><circle r="35.688" cx="3031.589" cy="-1712.157"/></g><use xlink:href="#H" class="C D"/><g transform="matrix(0 .10009 -.09987 0 367.7217 264.61511)" fill="red" class="C"><use xlink:href="#I"/><use xlink:href="#J"/></g><use xlink:href="#H" x="-0.362" y="116.221" class="C D"/><g transform="matrix(0 .10009 -.09987 0 367.3592 380.83439)" fill="red" class="C"><use xlink:href="#I"/><use xlink:href="#J"/></g><use xlink:href="#H" x="-0.362" y="59.2" class="C D"/><g transform="matrix(0 .10009 -.09987 0 367.3592 323.81436)" fill="red" class="C"><use xlink:href="#I"/><use xlink:href="#J"/></g><use xlink:href="#H" x="-71.029" y="-2.543" class="C D"/><g transform="matrix(0 .10009 -.09987 0 296.69349 262.07268)" fill="red" class="C"><use xlink:href="#I"/><use xlink:href="#J"/></g><use xlink:href="#H" x="-70.304" y="118.401" class="C D"/><g transform="matrix(0 .10009 -.09987 0 297.41844 383.01361)" fill="red" class="C"><use xlink:href="#I"/><use xlink:href="#J"/></g><path d="M173.787 244.289l-1.479 1.72 22.888 19.765 1.479-1.72zm6.067-3.032l-4.117 4.789 19.455 16.8 4.117-4.789zm-15.251 14.26l-1.479 1.721 22.888 19.765 1.479-1.721zm6.591 4.765c2.683-3.125 7.257-3.592 10.21-1.042s3.18 7.147.497 10.273l-.061.07m-11.509-9.503c2.981-3.473 8.064-3.991 11.345-1.158 3.286 2.828 3.534 7.942.553 11.414l-.068.078m-8.273-22.218l-7.396 8.602 19.455 16.8 7.396-8.602zm5.391-10.295l-1.399 1.627 22.888 19.765 1.399-1.627zm1.971-2.297l-1.987 2.311 1.763 1.523 1.987-2.311zm21.136 18.252l-1.987 2.311 1.763 1.523 1.987-2.311zm-17.661-15.17l-1.987 2.311 1.763 1.523 1.987-2.311zm14.054 12.055l-1.987 2.311 1.763 1.523 1.987-2.311zm-8.719-11.324l-1.987 2.311 1.763 1.523 1.987-2.311zm7.03 6.07l-1.987 2.311 1.763 1.523 1.987-2.311zm-3.383-3.002l-1.987 2.311 1.763 1.523 1.987-2.311zm-5.654-.745l-1.9 2.21 8.787 7.588 1.9-2.21z" class="C D"/><g transform="matrix(.07566 .06533 -.06519 .07582 242.54093 231.71721)" fill="red" class="C"><use xlink:href="#I"/><use xlink:href="#J"/></g><path d="M174.15 344.589l-1.479-1.72 22.888-19.765 1.479 1.72zm6.067 3.032l-4.117-4.789 19.455-16.8 4.117 4.789zm-15.251-14.26l-1.479-1.721 22.888-19.765 1.479 1.721zm6.591-4.765c2.683 3.125 7.257 3.592 10.21 1.042s3.18-7.147.497-10.273l-.061-.07m-11.509 9.503c2.981 3.473 8.064 3.991 11.345 1.158 3.286-2.828 3.534-7.942.553-11.414l-.068-.078m-8.273 22.218l-7.396-8.602 19.455-16.8 7.396 8.602zm5.391 10.295l-1.399-1.627 22.888-19.765 1.399 1.627zm1.971 2.297l-1.987-2.311 1.763-1.523 1.987 2.311zm21.136-18.252l-1.987-2.311 1.763-1.523 1.987 2.311zm-17.661 15.17l-1.987-2.311 1.763-1.523 1.987 2.311zm14.054-12.055l-1.987-2.311 1.763-1.523 1.987 2.311zm-8.719 11.324l-1.987-2.311 1.763-1.523 1.987 2.311zm7.03-6.07l-1.987-2.311 1.763-1.523 1.987 2.311zm-3.383 3.002l-1.987-2.311 1.763-1.523 1.987 2.311zm-5.654.745l-1.9-2.21 8.787-7.588 1.9 2.21z" class="C D"/><g transform="matrix(.07566 -.06533 -.06519 -.07582 242.90325 357.15467)" fill="red" class="C"><use xlink:href="#I"/><use xlink:href="#J"/></g><g transform="rotate(90 248.062 248.061)" class="C F"><g transform="matrix(.01501 0 0 .01498 294.94987 316.27622)"><use xlink:href="#F"/><ellipse cx="2861.412" cy="4267.308" rx="740.211" ry="696.019" transform="matrix(1.07463 0 0 1.06349 -3130.393 -10547.35)"/></g><g transform="matrix(.01501 0 0 .01498 205.4146 264.39115)"><use xlink:href="#G"/><ellipse cx="2861.412" cy="4267.308" rx="740.211" ry="696.019" transform="matrix(.5803 0 0 .57429 4247.852 -5088.506)"/></g><g transform="matrix(.01426 0 0 .01423 294.90826 311.62638)"><use xlink:href="#F"/><ellipse cx="2861.412" cy="4267.308" rx="740.211" ry="696.019" transform="matrix(1.07463 0 0 1.06349 -3130.393 -10547.35)"/></g><g transform="matrix(.01426 0 0 .01423 209.84975 262.33556)"><use xlink:href="#G"/><ellipse cx="2861.412" cy="4267.308" rx="740.211" ry="696.019" transform="matrix(.5803 0 0 .57429 4247.852 -5088.506)"/></g><g transform="matrix(.00851 0 0 .00849 294.58944 276.00865)"><use xlink:href="#F"/><ellipse cx="2861.412" cy="4267.308" rx="740.211" ry="696.019" transform="matrix(1.07463 0 0 1.06349 -3130.393 -10547.35)"/></g><g transform="matrix(.00851 0 0 .00849 243.82294 246.58982)"><use xlink:href="#G"/><ellipse cx="2861.412" cy="4267.308" rx="740.211" ry="696.019" transform="matrix(.5803 0 0 .57429 4247.852 -5088.506)"/></g><g transform="matrix(.00768 0 0 .00767 294.54344 270.86757)"><use xlink:href="#F"/><ellipse cx="2861.412" cy="4267.308" rx="740.211" ry="696.019" transform="matrix(1.07463 0 0 1.06349 -3130.393 -10547.35)"/></g><g transform="matrix(.00768 0 0 .00767 248.72672 244.3171)"><use xlink:href="#G"/><ellipse cx="2861.412" cy="4267.308" rx="740.211" ry="696.019" transform="matrix(.5803 0 0 .57429 4247.852 -5088.506)"/></g></g><g transform="matrix(0 .10009 -.09987 0 95.940565 -3.23706)" class="C E"><circle r="35.688" cx="2899.235" cy="-1862.472"/><circle r="35.688" cx="3033.006" cy="-1862.472"/><circle r="35.688" cx="2964.939" cy="-1787.314"/><circle r="35.688" cx="2904.435" cy="-1714.521"/><circle r="35.688" cx="3031.589" cy="-1712.157"/></g><g transform="rotate(90 248.062 248.061)" class="C F"><g transform="matrix(.01501 0 0 .01498 294.9499 347.2437)"><use xlink:href="#F"/><ellipse cx="2861.412" cy="4267.308" rx="740.211" ry="696.019" transform="matrix(1.07463 0 0 1.06349 -3130.393 -10547.35)"/></g><g transform="matrix(.01501 0 0 .01498 205.41463 295.35863)"><use xlink:href="#G"/><ellipse cx="2861.412" cy="4267.308" rx="740.211" ry="696.019" transform="matrix(.5803 0 0 .57429 4247.852 -5088.506)"/></g><g transform="matrix(.01426 0 0 .01423 294.90829 342.59386)"><use xlink:href="#F"/><ellipse cx="2861.412" cy="4267.308" rx="740.211" ry="696.019" transform="matrix(1.07463 0 0 1.06349 -3130.393 -10547.35)"/></g><g transform="matrix(.01426 0 0 .01423 209.84978 293.30305)"><use xlink:href="#G"/><ellipse cx="2861.412" cy="4267.308" rx="740.211" ry="696.019" transform="matrix(.5803 0 0 .57429 4247.852 -5088.506)"/></g><g transform="matrix(.00851 0 0 .00849 294.58947 306.97613)"><use xlink:href="#F"/><ellipse cx="2861.412" cy="4267.308" rx="740.211" ry="696.019" transform="matrix(1.07463 0 0 1.06349 -3130.393 -10547.35)"/></g><g transform="matrix(.00851 0 0 .00849 243.82297 277.5573)"><use xlink:href="#G"/><ellipse cx="2861.412" cy="4267.308" rx="740.211" ry="696.019" transform="matrix(.5803 0 0 .57429 4247.852 -5088.506)"/></g><g transform="matrix(.00768 0 0 .00767 294.54347 301.83506)"><use xlink:href="#F"/><ellipse cx="2861.412" cy="4267.308" rx="740.211" ry="696.019" transform="matrix(1.07463 0 0 1.06349 -3130.393 -10547.35)"/></g><g transform="matrix(.00768 0 0 .00767 248.72675 275.28459)"><use xlink:href="#G"/><ellipse cx="2861.412" cy="4267.308" rx="740.211" ry="696.019" transform="matrix(.5803 0 0 .57429 4247.852 -5088.506)"/></g></g><g transform="matrix(0 .10009 -.09987 0 64.973085 -3.23703)" class="C E"><circle r="35.688" cx="2899.235" cy="-1862.472"/><circle r="35.688" cx="3033.006" cy="-1862.472"/><circle r="35.688" cx="2964.939" cy="-1787.314"/><circle r="35.688" cx="2904.435" cy="-1714.521"/><circle r="35.688" cx="3031.589" cy="-1712.157"/></g><g transform="rotate(90 248.062 248.061)" class="C F"><g transform="matrix(.01501 0 0 .01498 321.44378 347.24371)"><use xlink:href="#F"/><ellipse cx="2861.412" cy="4267.308" rx="740.211" ry="696.019" transform="matrix(1.07463 0 0 1.06349 -3130.393 -10547.35)"/></g><g transform="matrix(.01501 0 0 .01498 231.9085 295.35864)"><use xlink:href="#G"/><ellipse cx="2861.412" cy="4267.308" rx="740.211" ry="696.019" transform="matrix(.5803 0 0 .57429 4247.852 -5088.506)"/></g><g transform="matrix(.01426 0 0 .01423 321.40216 342.59387)"><use xlink:href="#F"/><ellipse cx="2861.412" cy="4267.308" rx="740.211" ry="696.019" transform="matrix(1.07463 0 0 1.06349 -3130.393 -10547.35)"/></g><g transform="matrix(.01426 0 0 .01423 236.34365 293.30306)"><use xlink:href="#G"/><ellipse cx="2861.412" cy="4267.308" rx="740.211" ry="696.019" transform="matrix(.5803 0 0 .57429 4247.852 -5088.506)"/></g><g transform="matrix(.00851 0 0 .00849 321.08334 306.97614)"><use xlink:href="#F"/><ellipse cx="2861.412" cy="4267.308" rx="740.211" ry="696.019" transform="matrix(1.07463 0 0 1.06349 -3130.393 -10547.35)"/></g><g transform="matrix(.00851 0 0 .00849 270.31684 277.55731)"><use xlink:href="#G"/><ellipse cx="2861.412" cy="4267.308" rx="740.211" ry="696.019" transform="matrix(.5803 0 0 .57429 4247.852 -5088.506)"/></g><g transform="matrix(.00768 0 0 .00767 321.03734 301.83507)"><use xlink:href="#F"/><ellipse cx="2861.412" cy="4267.308" rx="740.211" ry="696.019" transform="matrix(1.07463 0 0 1.06349 -3130.393 -10547.35)"/></g><g transform="matrix(.00768 0 0 .00767 275.22062 275.2846)"><use xlink:href="#G"/><ellipse cx="2861.412" cy="4267.308" rx="740.211" ry="696.019" transform="matrix(.5803 0 0 .57429 4247.852 -5088.506)"/></g></g><g transform="matrix(0 .10009 -.09987 0 64.973075 23.256839)" class="C E"><circle r="35.688" cx="2899.235" cy="-1862.472"/><circle r="35.688" cx="3033.006" cy="-1862.472"/><circle r="35.688" cx="2964.939" cy="-1787.314"/><circle r="35.688" cx="2904.435" cy="-1714.521"/><circle r="35.688" cx="3031.589" cy="-1712.157"/></g><g transform="rotate(90 248.062 248.061)" class="C F"><g transform="matrix(.01501 0 0 .01498 268.45606 347.24371)"><use xlink:href="#F"/><ellipse cx="2861.412" cy="4267.308" rx="740.211" ry="696.019" transform="matrix(1.07463 0 0 1.06349 -3130.393 -10547.35)"/></g><g transform="matrix(.01501 0 0 .01498 178.92079 295.35864)"><use xlink:href="#G"/><ellipse cx="2861.412" cy="4267.308" rx="740.211" ry="696.019" transform="matrix(.5803 0 0 .57429 4247.852 -5088.506)"/></g><g transform="matrix(.01426 0 0 .01423 268.41444 342.59387)"><use xlink:href="#F"/><ellipse cx="2861.412" cy="4267.308" rx="740.211" ry="696.019" transform="matrix(1.07463 0 0 1.06349 -3130.393 -10547.35)"/></g><g transform="matrix(.01426 0 0 .01423 183.35593 293.30306)"><use xlink:href="#G"/><ellipse cx="2861.412" cy="4267.308" rx="740.211" ry="696.019" transform="matrix(.5803 0 0 .57429 4247.852 -5088.506)"/></g><g transform="matrix(.00851 0 0 .00849 268.09562 306.97614)"><use xlink:href="#F"/><ellipse cx="2861.412" cy="4267.308" rx="740.211" ry="696.019" transform="matrix(1.07463 0 0 1.06349 -3130.393 -10547.35)"/></g><g transform="matrix(.00851 0 0 .00849 217.32912 277.55731)"><use xlink:href="#G"/><ellipse cx="2861.412" cy="4267.308" rx="740.211" ry="696.019" transform="matrix(.5803 0 0 .57429 4247.852 -5088.506)"/></g><g transform="matrix(.00768 0 0 .00767 268.04962 301.83507)"><use xlink:href="#F"/><ellipse cx="2861.412" cy="4267.308" rx="740.211" ry="696.019" transform="matrix(1.07463 0 0 1.06349 -3130.393 -10547.35)"/></g><g transform="matrix(.00768 0 0 .00767 222.2329 275.2846)"><use xlink:href="#G"/><ellipse cx="2861.412" cy="4267.308" rx="740.211" ry="696.019" transform="matrix(.5803 0 0 .57429 4247.852 -5088.506)"/></g></g><g transform="matrix(0 .10009 -.09987 0 64.973075 -29.730881)" class="C E"><circle r="35.688" cx="2899.235" cy="-1862.472"/><circle r="35.688" cx="3033.006" cy="-1862.472"/><circle r="35.688" cx="2964.939" cy="-1787.314"/><circle r="35.688" cx="2904.435" cy="-1714.521"/><circle r="35.688" cx="3031.589" cy="-1712.157"/></g></svg>